Coordinates
version=1
nRows=24
nColumns=22
inDegrees=yes

Units are S.I. units (second, meters, Newtons, ...)
If the header above contains a line with 'inDegrees', this indicates whether rotational values are in degrees (yes) or radians (no).

endheader
time	pelvis_tilt	pelvis_list	pelvis_rotation	pelvis_tx	pelvis_ty	pelvis_tz	hip_flexion_r	hip_adduction_r	hip_rotation_r	knee_angle_r	ankle_angle_r	subtalar_angle_r	hip_flexion_l	hip_adduction_l	hip_rotation_l	knee_angle_l	ankle_angle_l	subtalar_angle_l	lumbar_extension	lumbar_bending	lumbar_rotation
      1.31000000	     -4.73382479	      0.10870114	      2.31675329	     -0.85933826	      0.91986751	     -0.68542008	     23.87380311	     -6.94664135	     -4.78942357	    -50.35762432	     10.57182401	      0.43922161	      3.34501368	      2.87000117	    -12.34028030	    -18.90681666	     19.09344244	     -4.22343139	    -13.87592793	     -3.36543601	    -13.28220151
      1.32000000	     -4.74616326	     -0.01486936	      2.16775530	     -0.85668239	      0.91952654	     -0.68481177	     24.67864861	     -6.60320269	     -4.66226228	    -50.83935441	     10.57142595	      0.60201168	      3.17284231	      2.69519994	    -12.46653573	    -18.92090651	     19.23555165	     -4.21136843	    -13.90221179	     -3.22919645	    -13.59930321
      1.33000000	     -4.77475724	     -0.16388341	      2.02109115	     -0.85390221	      0.91917340	     -0.68414033	     25.46335920	     -6.22133441	     -4.59359273	    -51.09113975	     10.62497456	      0.84834111	      3.01138129	      2.48866952	    -12.59289458	    -18.93772336	     19.39751181	     -4.18542196	    -13.91041831	     -3.06682387	    -13.91478524
      1.34000000	     -4.82065923	     -0.33351921	      1.86846657	     -0.85098404	      0.91880033	     -0.68341584	     26.22940986	     -5.80905072	     -4.57073053	    -51.11344614	     10.71795438	      1.18028302	      2.85748452	      2.25900557	    -12.71189039	    -18.95303643	     19.56177905	     -4.14295121	    -13.89514536	     -2.88198086	    -14.22232074
      1.35000000	     -4.87073752	     -0.52021880	      1.70678384	     -0.84791257	      0.91841728	     -0.68263641	     26.96070934	     -5.37547051	     -4.59769816	    -50.90986356	     10.84994743	      1.53765662	      2.69538680	      2.00692733	    -12.85170964	    -18.96634803	     19.73684527	     -4.09169739	    -13.87080686	     -2.67754629	    -14.51650358
      1.36000000	     -4.94830948	     -0.70893325	      1.52777769	     -0.84471996	      0.91798824	     -0.68180157	     27.69208001	     -4.93376985	     -4.63955948	    -50.49728222	     10.95123905	      2.05202371	      2.54695444	      1.75685243	    -12.97321154	    -18.96736200	     19.89494994	     -4.00385311	    -13.81463315	     -2.47274826	    -14.78901976
      1.37000000	     -5.00181874	     -0.91552934	      1.33553925	     -0.84136203	      0.91756674	     -0.68091906	     28.35288312	     -4.47847896	     -4.73237944	    -49.87279634	     11.10906276	      2.41536429	      2.36876287	      1.47601440	    -13.16289788	    -18.98844390	     20.09710505	     -3.94585463	    -13.78378780	     -2.24340681	    -15.05135225
      1.38000000	     -5.07719376	     -1.11843707	      1.12767639	     -0.83787518	      0.91710135	     -0.67997138	     29.00138731	     -4.02146444	     -4.82529968	    -49.05417284	     11.19390325	      2.94804054	      2.19638815	      1.20435219	    -13.32734973	    -18.99415883	     20.28101979	     -3.84198109	    -13.72691117	     -2.02348512	    -15.28187458
      1.39000000	     -5.13037630	     -1.32665044	      0.90160778	     -0.83422269	      0.91662026	     -0.67898713	     29.58534067	     -3.56975517	     -4.95989616	    -48.05747014	     11.31869929	      3.27849225	      1.99453255	      0.91829974	    -13.55903863	    -19.01930760	     20.49405132	     -3.78850705	    -13.69207221	     -1.79066377	    -15.49621129
      1.40000000	     -5.18377100	     -1.53193581	      0.66261506	     -0.83044118	      0.91610911	     -0.67792907	     30.13454295	     -3.11803992	     -5.09814461	    -46.90106600	     11.36525217	      3.63943982	      1.77683454	      0.63704889	    -13.77931885	    -19.03446625	     20.70182481	     -3.71771983	    -13.65982475	     -1.56524341	    -15.68962256
      1.41000000	     -5.22581037	     -1.72990225	      0.40978156	     -0.82651326	      0.91557956	     -0.67681409	     30.63414402	     -2.67563680	     -5.24323460	    -45.59967625	     11.34669160	      4.03986812	      1.52524050	      0.36822585	    -13.98392941	    -19.03196474	     20.89299457	     -3.60790202	    -13.64140783	     -1.34867172	    -15.85481860
      1.42000000	     -5.26901916	     -1.92511714	      0.14565379	     -0.82244981	      0.91498472	     -0.67562723	     31.10130816	     -2.23535967	     -5.40033380	    -44.17547062	     11.29151614	      4.19728585	      1.27629159	      0.09256782	    -14.23704271	    -19.05999434	     21.11139888	     -3.56844059	    -13.62102618	     -1.13576785	    -16.01481951
      1.43000000	     -5.29868089	     -2.11771219	     -0.12186775	     -0.81824531	      0.91436688	     -0.67438144	     31.51711575	     -1.80011359	     -5.56838948	    -42.63943213	     11.13082972	      4.33480247	      0.99436801	     -0.17883574	    -14.47460595	    -19.07689203	     21.32857954	     -3.49898821	    -13.61826905	     -0.92569017	    -16.16037175
      1.44000000	     -5.32527158	     -2.29913562	     -0.39012367	     -0.81389971	      0.91369944	     -0.67306418	     31.89757570	     -1.37488909	     -5.74038648	    -41.01595795	     10.87762935	      4.40518375	      0.69261577	     -0.43944743	    -14.70895564	    -19.08656857	     21.54081209	     -3.41446012	    -13.61959895	     -0.73044478	    -16.30037091
      1.45000000	     -5.34619150	     -2.47029919	     -0.65404212	     -0.80941587	      0.91298258	     -0.67168293	     32.23993759	     -0.96051766	     -5.91727057	    -39.31916670	     10.52922727	      4.40973891	      0.36975699	     -0.69134527	    -14.93782808	    -19.09161501	     21.75466697	     -3.30356889	    -13.62910856	     -0.54758368	    -16.44128583
      1.46000000	     -5.36644731	     -2.63159463	     -0.91031053	     -0.80479159	      0.91220828	     -0.67022724	     32.54895447	     -0.55444310	     -6.09530163	    -37.56268630	     10.09524835	      4.35167048	      0.02971149	     -0.93588253	    -15.15604433	    -19.08861083	     21.96517750	     -3.16044064	    -13.64100778	     -0.37855303	    -16.58691775
      1.47000000	     -5.39937459	     -2.77352804	     -1.15729834	     -0.80003086	      0.91134556	     -0.66872643	     32.84583319	     -0.16823899	     -6.26829434	    -35.76894739	      9.58373510	      4.24802805	     -0.31381239	     -1.15962089	    -15.35842230	    -19.07534539	     22.16386242	     -3.00420119	    -13.63603639	     -0.22739233	    -16.74144652
      1.48000000	     -5.43964272	     -2.90031153	     -1.38541950	     -0.79513395	      0.91040523	     -0.66716454	     33.12042869	      0.20210855	     -6.43970459	    -33.94438124	      9.02390252	      4.11505691	     -0.66388101	     -1.37136995	    -15.54276825	    -19.05378210	     22.35774267	     -2.82076181	    -13.62027304	     -0.09494808	    -16.90941777
      1.49000000	     -5.49378872	     -3.00583559	     -1.59556101	     -0.79009803	      0.90936869	     -0.66555973	     33.38281893	      0.54869564	     -6.60381718	    -32.10536685	      8.44827433	      3.97251780	     -1.01541661	     -1.56222795	    -15.70235141	    -19.02098407	     22.54087227	     -2.61697949	    -13.58472975	      0.01655405	    -17.09537661
      1.50000000	     -5.53307161	     -3.09854620	     -1.77793833	     -0.78489891	      0.90828356	     -0.66391992	     33.58778110	      0.87907370	     -6.75910970	    -30.24531851	      7.95043067	      3.80678249	     -1.40166545	     -1.74158091	    -15.82813158	    -18.97317711	     22.71491387	     -2.28595243	    -13.56151433	      0.11754697	    -17.30150670
      1.51000000	     -5.63267522	     -3.15151329	     -1.94275840	     -0.77958179	      0.90701426	     -0.66225119	     33.85159432	      1.15937016	     -6.91940944	    -28.42767229	      7.41033316	      3.70833853	     -1.72802273	     -1.88470743	    -15.95150945	    -18.92940931	     22.87997782	     -2.10092419	    -13.45885653	      0.17999029	    -17.52933522
      1.52000000	     -5.71719979	     -3.19760843	     -2.07521507	     -0.77407801	      0.90569193	     -0.66055173	     34.05447504	      1.42337344	     -7.08563297	    -26.61423195	      6.99290513	      3.62713573	     -2.08617129	     -2.02526043	    -16.04520995	    -18.87886217	     23.04832023	     -1.83769207	    -13.36321358	      0.23746370	    -17.77580899
      1.53000000	     -5.80826470	     -3.21779660	     -2.18381959	     -0.76839006	      0.90427406	     -0.65882379	     34.23616026	      1.65162979	     -7.25585846	    -24.84690324	      6.67556931	      3.58010839	     -2.45386792	     -2.14125432	    -16.11637626	    -18.81792084	     23.20110989	     -1.55025918	    -13.24494127	      0.27054437	    -18.03590028
      1.54000000	     -5.90403703	     -3.21557679	     -2.26990710	     -0.76249779	      0.90276523	     -0.65707358	     34.39544902	      1.84493363	     -7.43978208	    -23.14997136	      6.45952696	      3.56489736	     -2.83178954	     -2.23596488	    -16.17072052	    -18.75132718	     23.34352395	     -1.26228393	    -13.10408151	      0.28539012	    -18.30459271
